HIERARCHY
ROOT Hips
{
	OFFSET 0.00000 0.00000 0.00000
	CHANNELS 6 Xposition Yposition Zposition Zrotation Yrotation Xrotation 
	JOINT LHipJoint
	{
		OFFSET 0 0 0
		CHANNELS 3 Zrotation Yrotation Xrotation
		JOINT LeftHip
		{
			OFFSET 1.46561 -1.72757 0.83774
			CHANNELS 3 Zrotation Yrotation Xrotation
			JOINT LeftKnee
			{
				OFFSET 2.48915 -6.83890 0.00000
				CHANNELS 3 Zrotation Yrotation Xrotation
				JOINT LeftAnkle
				{
					OFFSET 2.60555 -7.15868 0.00000
					CHANNELS 3 Zrotation Yrotation Xrotation
					JOINT LeftToe
					{
						OFFSET 0.19248 -0.52884 2.26738
						CHANNELS 3 Zrotation Yrotation Xrotation
						End Site
						{
							OFFSET 0.00000 -0.00000 1.17015
						}
					}
				}
			}
		}
	}
	JOINT RHipJoint
	{
		OFFSET 0 0 0
		CHANNELS 3 Zrotation Yrotation Xrotation
		JOINT RightHip
		{
			OFFSET -1.46918 -1.72757 0.83774
			CHANNELS 3 Zrotation Yrotation Xrotation
			JOINT RightKnee
			{
				OFFSET -2.49034 -6.84216 0.00000
				CHANNELS 3 Zrotation Yrotation Xrotation
				JOINT RightAnkle
				{
					OFFSET -2.65971 -7.30750 0.00000
					CHANNELS 3 Zrotation Yrotation Xrotation
					JOINT RightToe
					{
						OFFSET -0.19227 -0.52827 2.30785
						CHANNELS 3 Zrotation Yrotation Xrotation
						End Site
						{
							OFFSET -0.00000 -0.00000 1.18972
						}
					}
				}
			}
		}
	}
	JOINT lowerback
	{
		OFFSET 0 0 0
		CHANNELS 3 Zrotation Yrotation Xrotation
		JOINT Chest
		{
			OFFSET 0.02432 2.19909 -0.28000
			CHANNELS 3 Zrotation Yrotation Xrotation
			JOINT Chest2
			{
				OFFSET 0.03714 2.21816 -0.15261
				CHANNELS 3 Zrotation Yrotation Xrotation
				JOINT lowerneck
				{
					OFFSET 0 0 0
					CHANNELS 3 Zrotation Yrotation Xrotation
					JOINT Neck
					{
						OFFSET -0.01896 1.56165 0.21681
						CHANNELS 3 Zrotation Yrotation Xrotation
						JOINT Head
						{
							OFFSET 0.02744 1.56009 0.06764
							CHANNELS 3 Zrotation Yrotation Xrotation
							End Site
							{
								OFFSET 0.01212 1.60574 0.00298
							}
						}
					}
				}
				JOINT LeftCollar
				{
					OFFSET 0 0 0
					CHANNELS 3 Zrotation Yrotation Xrotation
					JOINT LeftShoulder
					{
						OFFSET 3.05595 1.48048 -0.60794
CHANNELS 3 Zrotation Xrotation Yrotation
						JOINT LeftElbow
						{
OFFSET 0 -5.206070 -0.000000
CHANNELS 3 Zrotation Xrotation Yrotation
							JOINT LeftWrist
							{
OFFSET 0 -3.399610 0.000000
CHANNELS 3 Zrotation Xrotation Yrotation
								JOINT lhand
								{
									OFFSET 0 0 0
CHANNELS 3 Zrotation Xrotation Yrotation
									JOINT LFingers
									{
OFFSET 0 -0.519690 0.000000
CHANNELS 3 Zrotation Xrotation Yrotation
										End Site
										{
OFFSET 0 -0.418990 0.000000
										}
									}
								}
								JOINT LThumb
								{
OFFSET 0 0.000000 0.000000
CHANNELS 3 Zrotation Xrotation Yrotation
									End Site
									{
OFFSET 0 -0.425390 0.425390
									}
								}
							}
						}
					}
				}
				JOINT RightCollar
				{
					OFFSET 0 0 0
					CHANNELS 3 Zrotation Yrotation Xrotation
					JOINT RightShoulder
					{
						OFFSET -2.99052 1.57608 -0.69102
CHANNELS 3 Zrotation Xrotation Yrotation
						JOINT RightElbow
						{
OFFSET 0 -5.322140 0.000000
CHANNELS 3 Zrotation Xrotation Yrotation
							JOINT RightWrist
							{
OFFSET 0 -3.512080 0.000000
CHANNELS 3 Zrotation Xrotation Yrotation
								JOINT rhand
								{
									OFFSET 0 0 0
CHANNELS 3 Zrotation Xrotation Yrotation
									JOINT RFingers
									{
OFFSET 0 -0.586680 0.000000
CHANNELS 3 Zrotation Xrotation Yrotation
										End Site
										{
OFFSET 0 -0.473000 0.000000
										}
									}
								}
								JOINT RThumb
								{
OFFSET 0 0.000000 0.000000
CHANNELS 3 Zrotation Xrotation Yrotation
									End Site
									{
OFFSET 0 -0.480220 0.480220
									}
								}
							}
						}
					}
				}
			}
		}
	}
}
MOTION
Frames: 8
Frame Time: .0083333
0.7148 17.4326 -14.9295 -1.2380 -2.9204 7.0722 0.0000 0.0000 0.0000 -18.5701 2.6806 -20.8439 1.8646 8.5782 24.4845 0.5267 -2.8979 -13.0235 0.0159 0.8142 2.2378 0.0000 0.0000 0.0000 17.9469 3.8344 -20.4377 -2.2468 -9.3623 26.9353 -0.5294 5.1517 -12.9560 -0.3494 -3.7977 10.5082 -0.9280 -0.3011 2.1852 1.3087 -0.4408 4.7587 1.8633 -0.2814 3.6895 -1.1605 1.0010 -12.4552 -0.3646 1.8251 30.2831 0.3134 0.6261 11.9850 0.0000 0.0000 0.0000 4.2248 -8.4422 -25.0814 9.1344 -15.3744 1.2355 26.5571 -6.0851 1.3904 0.0 0.0 0.0 -7.1250 0.0 0.0 -0.0127 28.4254 -0.0051 0.0000 0.0000 0.0000 -2.0925 -3.6388 13.3939 -13.3734 -21.8318 -2.5905 -19.684 38.2935 24.5886 0.0 0.0 0.0 7.1250 0.0 -0.0 10.5678 55.5869 -2.7681
0.7031 17.4320 -14.9310 -1.2739 -2.8065 7.0920 0.0000 0.0000 0.0000 -18.4766 2.5151 -20.8520 1.8701 8.5900 24.5210 0.5283 -2.7678 -13.0614 0.0132 0.7428 2.0413 0.0000 0.0000 0.0000 18.0317 3.8537 -20.4249 -2.2434 -9.3557 26.9145 -0.5324 5.0293 -12.9894 -0.3544 -3.8248 10.5843 -0.8391 -0.3284 2.1801 1.3304 -0.4779 4.7645 1.8353 -0.2973 3.6992 -1.1888 0.9988 -12.3956 -0.3266 1.8162 30.2839 0.3309 0.6241 11.9722 0.0000 0.0000 0.0000 4.1469 -8.4488 -25.333 9.1784 -15.4444 1.2472 26.6083 -6.439 1.6309 0.0 0.0 0.0 -7.1250 0.0 0.0 0.0245 28.1557 0.01 0.0000 0.0000 0.0000 -2.155 -3.7442 13.296 -13.3773 -21.8376 -2.592 -19.7578 38.3437 24.4434 0.0 0.0 0.0 7.1250 0.0 -0.0 10.4258 55.4549 -2.6968
0.6930 17.4320 -14.9298 -1.3050 -2.6900 7.1023 0.0000 0.0000 0.0000 -18.3922 2.3452 -20.8320 1.8764 8.6038 24.5635 0.5295 -2.6123 -13.0985 0.0112 0.6848 1.8819 0.0000 0.0000 0.0000 18.1060 3.8290 -20.3910 -2.2366 -9.3424 26.8725 -0.5345 4.9581 -13.0133 -0.3577 -3.8425 10.6339 -0.7559 -0.3632 2.1775 1.3660 -0.5255 4.7640 1.8249 -0.3187 3.7015 -1.2069 1.0022 -12.4279 -0.3092 1.8220 30.3595 0.3419 0.6260 12.0087 0.0000 0.0000 0.0000 4.0285 -8.4394 -25.5463 9.2017 -15.4814 1.2534 26.3474 -6.4146 1.4461 0.0 0.0 0.0 -7.1250 0.0 0.0 -0.1759 28.3661 -0.0712 0.0000 0.0000 0.0000 -2.2619 -3.8171 13.292 -13.4070 -21.8807 -2.603 -19.92 38.3245 24.4287 0.0 0.0 0.0 7.1250 0.0 -0.0 10.2510 55.4727 -2.6554
0.6835 17.4322 -14.9284 -1.3962 -2.5764 7.1173 0.0000 0.0000 0.0000 -18.2440 2.2169 -20.8238 1.8825 8.6169 24.6041 0.5371 -2.3836 -13.2317 0.0074 0.5557 1.5270 0.0000 0.0000 0.0000 18.2415 3.8293 -20.3589 -2.2299 -9.3293 26.8309 -0.5345 4.8758 -13.0122 -0.3639 -3.8751 10.7255 -0.6001 -0.3939 2.1805 1.4108 -0.5678 4.7462 1.7832 -0.3350 3.6815 -1.2228 0.9992 -12.3666 -0.2895 1.8148 30.3833 0.3507 0.6235 12.0050 0.0000 -0.0000 0.0000 3.9304 -8.4069 -25.8241 9.2178 -15.5069 1.2577 26.3339 -6.5339 1.7577 0.0 0.0 0.0 -7.1250 0.0 0.0 -0.1891 28.0186 -0.0781 0.0000 -0.0000 0.0000 -2.355 -3.8405 13.3026 -13.4682 -21.9693 -2.6258 -19.9056 38.1962 24.5967 0.0 0.0 0.0 7.1250 0.0 -0.0 10.3414 55.6399 -2.7213
0.6740 17.4324 -14.9266 -1.4551 -2.4709 7.1257 0.0000 0.0000 0.0000 -18.1325 2.0873 -20.8044 1.8880 8.6288 24.6410 0.5428 -2.1590 -13.3434 0.0049 0.4499 1.2363 0.0000 0.0000 0.0000 18.3424 3.8209 -20.3185 -2.2227 -9.3152 26.7864 -0.5350 4.8067 -13.0177 -0.3713 -3.9139 10.8345 -0.4773 -0.4237 2.1755 1.4437 -0.6086 4.7431 1.7478 -0.3515 3.6816 -1.2393 0.9982 -12.3302 -0.2675 1.8102 30.4068 0.3611 0.6223 12.0064 -0.0000 0.0000 0.0000 3.831 -8.3982 -26.0675 9.2334 -15.5315 1.2619 26.2511 -6.6133 1.9289 0.0 0.0 0.0 -7.1250 0.0 0.0 -0.2548 27.8292 -0.1064 -0.0000 0.0000 0.0000 -2.4427 -3.8956 13.2945 -13.5124 -22.0333 -2.6424 -19.9724 38.1051 24.66 0.0 0.0 0.0 7.1250 0.0 -0.0 10.3005 55.7176 -2.7299
0.6649 17.4328 -14.9241 -1.5095 -2.3770 7.1310 0.0000 0.0000 0.0000 -18.0285 1.9749 -20.7806 1.8940 8.6417 24.6806 0.5501 -1.8923 -13.4874 0.0026 0.3298 0.9062 0.0000 0.0000 0.0000 18.4359 3.8115 -20.2715 -2.2147 -9.2997 26.7375 -0.5350 4.7520 -13.0173 -0.3802 -3.9602 10.9646 -0.3583 -0.4505 2.1659 1.4735 -0.6454 4.7419 1.7113 -0.3663 3.6859 -1.2568 0.9964 -12.2886 -0.2438 1.8041 30.4203 0.3719 0.6206 12.0028 0.0000 -0.0000 0.0000 3.731 -8.3957 -26.3114 9.2458 -15.5513 1.2652 26.1559 -6.6533 2.0676 0.0 0.0 0.0 -7.1250 0.0 0.0 -0.3296 27.6765 -0.1388 0.0000 -0.0000 0.0000 -2.5286 -3.9519 13.2852 -13.5553 -22.0955 -2.6585 -20.047 38.0002 24.7352 0.0 0.0 0.0 7.1250 0.0 -0.0 10.2569 55.809 -2.7409
0.6560 17.4330 -14.9213 -1.5589 -2.2920 7.1372 0.0000 0.0000 0.0000 -17.9323 1.8751 -20.7519 1.8988 8.6521 24.7130 0.5586 -1.5842 -13.6622 0.0008 0.1872 0.5144 0.0000 0.0000 0.0000 18.5227 3.8032 -20.2287 -2.2078 -9.2861 26.6945 -0.5351 4.7062 -13.0181 -0.3897 -4.0086 11.1009 -0.2444 -0.4731 2.1500 1.5005 -0.6766 4.7405 1.6748 -0.3783 3.6933 -1.2707 0.9935 -12.2457 -0.2219 1.7958 30.4257 0.3811 0.6183 11.9956 0.0000 -0.0000 0.0000 3.6278 -8.3977 -26.543 9.2608 -15.5751 1.2692 26.0575 -6.6572 2.1637 0.0 0.0 0.0 -7.1250 0.0 0.0 -0.4065 27.5714 -0.1722 0.0000 -0.0000 0.0000 -2.6129 -4.0032 13.2762 -13.5994 -22.1591 -2.6751 -20.1213 37.8781 24.805 0.0 0.0 0.0 7.1250 0.0 -0.0 10.2111 55.895 -2.7499
0.6472 17.4333 -14.9182 -1.5980 -2.2132 7.1451 0.0000 0.0000 0.0000 -17.8488 1.7837 -20.7206 1.9032 8.6615 24.7422 0.5680 -1.2424 -13.8628 0.0000 0.0364 0.1000 0.0000 0.0000 0.0000 18.5980 3.7920 -20.1895 -2.2012 -9.2732 26.6536 -0.5354 4.6670 -13.0218 -0.3987 -4.0542 11.2293 -0.1441 -0.4921 2.1279 1.5250 -0.7029 4.7378 1.6433 -0.3884 3.7029 -1.2830 0.9890 -12.2068 -0.1994 1.7846 30.4268 0.3898 0.6150 11.9876 -0.0000 -0.0000 0.0000 3.5184 -8.4085 -26.7481 9.2749 -15.5975 1.273 25.9522 -6.6288 2.2093 0.0 0.0 0.0 -7.1250 0.0 0.0 -0.4879 27.5229 -0.2072 -0.0000 -0.0000 0.0000 -2.6964 -4.0558 13.2538 -13.6362 -22.2122 -2.689 -20.2112 37.764 24.8529 0.0 0.0 0.0 7.1250 0.0 -0.0 10.1390 55.9619 -2.7467
